<mxfile host="app.diagrams.net" modified="2023-09-17T14:21:01.888Z" agent="Mozilla/5.0 (Windows NT 10.0; Win64; x64) AppleWebKit/537.36 (KHTML, like Gecko) Chrome/116.0.0.0 Safari/537.36" etag="P83LOMgA2mWPpab86CB-" version="21.7.5" type="device">
  <diagram name="Page-1" id="w_C1iKdAjof2hLGjVRmb">
    <mxGraphModel dx="2333" dy="1187" grid="1" gridSize="10" guides="1" tooltips="1" connect="1" arrows="1" fold="1" page="1" pageScale="1" pageWidth="827" pageHeight="583" math="0" shadow="0">
      <root>
        <mxCell id="0" />
        <mxCell id="1" parent="0" />
        <mxCell id="Z2XLwvbqGipMTayrslaY-1" value="" style="endArrow=classic;html=1;rounded=0;entryX=0.595;entryY=0.986;entryDx=0;entryDy=0;entryPerimeter=0;" edge="1" parent="1" target="Z2XLwvbqGipMTayrslaY-10">
          <mxGeometry width="50" height="50" relative="1" as="geometry">
            <mxPoint x="559.0000000000005" y="157" as="sourcePoint" />
            <mxPoint x="960.0000000000005" y="204" as="targetPoint" />
            <Array as="points">
              <mxPoint x="559" y="190" />
              <mxPoint x="959" y="190" />
            </Array>
          </mxGeometry>
        </mxCell>
        <mxCell id="Z2XLwvbqGipMTayrslaY-2" value="User" style="rounded=0;whiteSpace=wrap;html=1;fillColor=#dae8fc;strokeColor=#6c8ebf;fontSize=20;fontStyle=1" vertex="1" parent="1">
          <mxGeometry x="80" y="359" width="159" height="80" as="geometry" />
        </mxCell>
        <mxCell id="Z2XLwvbqGipMTayrslaY-3" value="2.0&lt;br&gt;Login" style="ellipse;whiteSpace=wrap;html=1;aspect=fixed;fillColor=#cdeb8b;strokeColor=#36393d;fontSize=16;" vertex="1" parent="1">
          <mxGeometry x="485" y="210" width="140" height="140" as="geometry" />
        </mxCell>
        <mxCell id="Z2XLwvbqGipMTayrslaY-4" value="" style="endArrow=classic;html=1;rounded=0;exitX=0.5;exitY=0;exitDx=0;exitDy=0;entryX=0.018;entryY=0.448;entryDx=0;entryDy=0;entryPerimeter=0;" edge="1" parent="1" source="Z2XLwvbqGipMTayrslaY-2">
          <mxGeometry width="50" height="50" relative="1" as="geometry">
            <mxPoint x="159.5" y="240" as="sourcePoint" />
            <mxPoint x="490.52" y="79.72000000000003" as="targetPoint" />
            <Array as="points">
              <mxPoint x="160" y="80" />
            </Array>
          </mxGeometry>
        </mxCell>
        <mxCell id="Z2XLwvbqGipMTayrslaY-5" value="1.0&lt;br&gt;Register" style="ellipse;whiteSpace=wrap;html=1;aspect=fixed;fillColor=#cdeb8b;strokeColor=#36393d;fontSize=16;" vertex="1" parent="1">
          <mxGeometry x="489" y="17" width="140" height="140" as="geometry" />
        </mxCell>
        <mxCell id="Z2XLwvbqGipMTayrslaY-6" value="3.0&lt;br&gt;Book Package" style="ellipse;whiteSpace=wrap;html=1;aspect=fixed;fillColor=#cdeb8b;strokeColor=#36393d;fontSize=16;" vertex="1" parent="1">
          <mxGeometry x="489" y="411" width="140" height="140" as="geometry" />
        </mxCell>
        <mxCell id="Z2XLwvbqGipMTayrslaY-7" value="" style="endArrow=classic;html=1;rounded=0;entryX=0;entryY=0.5;entryDx=0;entryDy=0;" edge="1" parent="1">
          <mxGeometry width="50" height="50" relative="1" as="geometry">
            <mxPoint x="160" y="279" as="sourcePoint" />
            <mxPoint x="485" y="279" as="targetPoint" />
          </mxGeometry>
        </mxCell>
        <mxCell id="Z2XLwvbqGipMTayrslaY-8" value="" style="endArrow=classic;html=1;rounded=0;exitX=0.5;exitY=1;exitDx=0;exitDy=0;" edge="1" parent="1" source="Z2XLwvbqGipMTayrslaY-2">
          <mxGeometry width="50" height="50" relative="1" as="geometry">
            <mxPoint x="159.5" y="519" as="sourcePoint" />
            <mxPoint x="489" y="679" as="targetPoint" />
            <Array as="points">
              <mxPoint x="160" y="679" />
            </Array>
          </mxGeometry>
        </mxCell>
        <mxCell id="Z2XLwvbqGipMTayrslaY-9" value="" style="group" vertex="1" connectable="0" parent="1">
          <mxGeometry x="840" y="50" width="200" height="60" as="geometry" />
        </mxCell>
        <mxCell id="Z2XLwvbqGipMTayrslaY-10" value="&lt;font style=&quot;font-size: 16px;&quot;&gt;user&lt;/font&gt;" style="rounded=0;whiteSpace=wrap;html=1;fillColor=#cce5ff;strokeColor=#36393d;" vertex="1" parent="Z2XLwvbqGipMTayrslaY-9">
          <mxGeometry width="200" height="60" as="geometry" />
        </mxCell>
        <mxCell id="Z2XLwvbqGipMTayrslaY-11" value="" style="endArrow=none;html=1;rounded=0;" edge="1" parent="Z2XLwvbqGipMTayrslaY-9">
          <mxGeometry width="50" height="50" relative="1" as="geometry">
            <mxPoint x="40" y="60" as="sourcePoint" />
            <mxPoint x="40" as="targetPoint" />
          </mxGeometry>
        </mxCell>
        <mxCell id="Z2XLwvbqGipMTayrslaY-12" value="" style="group" vertex="1" connectable="0" parent="1">
          <mxGeometry x="840" y="250" width="200" height="60" as="geometry" />
        </mxCell>
        <mxCell id="Z2XLwvbqGipMTayrslaY-13" value="&lt;span style=&quot;font-size: 16px;&quot;&gt;user&lt;/span&gt;" style="rounded=0;whiteSpace=wrap;html=1;fillColor=#cce5ff;strokeColor=#36393d;" vertex="1" parent="Z2XLwvbqGipMTayrslaY-12">
          <mxGeometry width="200" height="60" as="geometry" />
        </mxCell>
        <mxCell id="Z2XLwvbqGipMTayrslaY-14" value="" style="endArrow=none;html=1;rounded=0;" edge="1" parent="Z2XLwvbqGipMTayrslaY-12">
          <mxGeometry width="50" height="50" relative="1" as="geometry">
            <mxPoint x="40" y="60" as="sourcePoint" />
            <mxPoint x="40" as="targetPoint" />
          </mxGeometry>
        </mxCell>
        <mxCell id="Z2XLwvbqGipMTayrslaY-15" value="" style="group" vertex="1" connectable="0" parent="1">
          <mxGeometry x="840" y="450" width="200" height="60" as="geometry" />
        </mxCell>
        <mxCell id="Z2XLwvbqGipMTayrslaY-16" value="&lt;font style=&quot;font-size: 16px;&quot;&gt;booking&lt;/font&gt;" style="rounded=0;whiteSpace=wrap;html=1;fillColor=#cce5ff;strokeColor=#36393d;" vertex="1" parent="Z2XLwvbqGipMTayrslaY-15">
          <mxGeometry width="200" height="60" as="geometry" />
        </mxCell>
        <mxCell id="Z2XLwvbqGipMTayrslaY-17" value="" style="endArrow=none;html=1;rounded=0;" edge="1" parent="Z2XLwvbqGipMTayrslaY-15">
          <mxGeometry width="50" height="50" relative="1" as="geometry">
            <mxPoint x="40" y="60" as="sourcePoint" />
            <mxPoint x="40" as="targetPoint" />
          </mxGeometry>
        </mxCell>
        <mxCell id="Z2XLwvbqGipMTayrslaY-18" value="" style="endArrow=classic;html=1;rounded=0;" edge="1" parent="1">
          <mxGeometry width="50" height="50" relative="1" as="geometry">
            <mxPoint x="559.0000000000005" y="350" as="sourcePoint" />
            <mxPoint x="959" y="310" as="targetPoint" />
            <Array as="points">
              <mxPoint x="559" y="383" />
              <mxPoint x="959" y="383" />
            </Array>
          </mxGeometry>
        </mxCell>
        <mxCell id="Z2XLwvbqGipMTayrslaY-19" value="" style="endArrow=classic;html=1;rounded=0;" edge="1" parent="1">
          <mxGeometry width="50" height="50" relative="1" as="geometry">
            <mxPoint x="560.0000000000005" y="551" as="sourcePoint" />
            <mxPoint x="960" y="511" as="targetPoint" />
            <Array as="points">
              <mxPoint x="560" y="584" />
              <mxPoint x="960" y="584" />
            </Array>
          </mxGeometry>
        </mxCell>
        <mxCell id="Z2XLwvbqGipMTayrslaY-20" value="" style="endArrow=classic;html=1;rounded=0;exitX=0;exitY=0.5;exitDx=0;exitDy=0;" edge="1" parent="1" source="Z2XLwvbqGipMTayrslaY-10">
          <mxGeometry width="50" height="50" relative="1" as="geometry">
            <mxPoint x="700" y="240" as="sourcePoint" />
            <mxPoint x="630" y="80" as="targetPoint" />
          </mxGeometry>
        </mxCell>
        <mxCell id="Z2XLwvbqGipMTayrslaY-21" value="" style="endArrow=classic;html=1;rounded=0;exitX=0;exitY=0.5;exitDx=0;exitDy=0;" edge="1" parent="1" source="Z2XLwvbqGipMTayrslaY-13">
          <mxGeometry width="50" height="50" relative="1" as="geometry">
            <mxPoint x="835" y="279.47" as="sourcePoint" />
            <mxPoint x="625" y="279.47" as="targetPoint" />
          </mxGeometry>
        </mxCell>
        <mxCell id="Z2XLwvbqGipMTayrslaY-22" value="" style="endArrow=classic;html=1;rounded=0;exitX=0;exitY=0.5;exitDx=0;exitDy=0;" edge="1" parent="1">
          <mxGeometry width="50" height="50" relative="1" as="geometry">
            <mxPoint x="840" y="479.57" as="sourcePoint" />
            <mxPoint x="630" y="479.57" as="targetPoint" />
          </mxGeometry>
        </mxCell>
        <mxCell id="Z2XLwvbqGipMTayrslaY-23" value="4.0&lt;br&gt;Send Message" style="ellipse;whiteSpace=wrap;html=1;aspect=fixed;fillColor=#cdeb8b;strokeColor=#36393d;fontSize=16;" vertex="1" parent="1">
          <mxGeometry x="489" y="620" width="140" height="140" as="geometry" />
        </mxCell>
        <mxCell id="Z2XLwvbqGipMTayrslaY-24" value="" style="group" vertex="1" connectable="0" parent="1">
          <mxGeometry x="840" y="659" width="200" height="60" as="geometry" />
        </mxCell>
        <mxCell id="Z2XLwvbqGipMTayrslaY-25" value="&lt;font style=&quot;font-size: 16px;&quot;&gt;booking&lt;/font&gt;" style="rounded=0;whiteSpace=wrap;html=1;fillColor=#cce5ff;strokeColor=#36393d;" vertex="1" parent="Z2XLwvbqGipMTayrslaY-24">
          <mxGeometry width="200" height="60" as="geometry" />
        </mxCell>
        <mxCell id="Z2XLwvbqGipMTayrslaY-26" value="" style="endArrow=none;html=1;rounded=0;" edge="1" parent="Z2XLwvbqGipMTayrslaY-24">
          <mxGeometry width="50" height="50" relative="1" as="geometry">
            <mxPoint x="40" y="60" as="sourcePoint" />
            <mxPoint x="40" as="targetPoint" />
          </mxGeometry>
        </mxCell>
        <mxCell id="Z2XLwvbqGipMTayrslaY-27" value="" style="endArrow=classic;html=1;rounded=0;" edge="1" parent="1">
          <mxGeometry width="50" height="50" relative="1" as="geometry">
            <mxPoint x="560.0000000000005" y="760" as="sourcePoint" />
            <mxPoint x="960" y="720" as="targetPoint" />
            <Array as="points">
              <mxPoint x="560" y="793" />
              <mxPoint x="960" y="793" />
            </Array>
          </mxGeometry>
        </mxCell>
        <mxCell id="Z2XLwvbqGipMTayrslaY-28" value="" style="endArrow=classic;html=1;rounded=0;exitX=0;exitY=0.5;exitDx=0;exitDy=0;" edge="1" parent="1">
          <mxGeometry width="50" height="50" relative="1" as="geometry">
            <mxPoint x="840" y="688.5699999999999" as="sourcePoint" />
            <mxPoint x="630" y="688.5699999999999" as="targetPoint" />
          </mxGeometry>
        </mxCell>
        <mxCell id="Z2XLwvbqGipMTayrslaY-35" value="" style="endArrow=classic;html=1;rounded=0;entryX=0;entryY=0.5;entryDx=0;entryDy=0;" edge="1" parent="1">
          <mxGeometry width="50" height="50" relative="1" as="geometry">
            <mxPoint x="161" y="479.47" as="sourcePoint" />
            <mxPoint x="486" y="479.47" as="targetPoint" />
          </mxGeometry>
        </mxCell>
      </root>
    </mxGraphModel>
  </diagram>
</mxfile>
